<?xml version="1.0" standalone="no"?>
<!DOCTYPE svg PUBLIC "-//W3C//DTD SVG 20010904//EN"
 "http://www.w3.org/TR/2001/REC-SVG-20010904/DTD/svg10.dtd">
<svg version="1.0" xmlns="http://www.w3.org/2000/svg"
 width="1209.000000pt" height="627.000000pt" viewBox="0 0 1209.000000 627.000000"
 preserveAspectRatio="xMidYMid meet">

<g transform="translate(0.000000,627.000000) scale(0.100000,-0.100000)"
fill="#000000" stroke="none">
<path d="M5675 5200 c-3 -5 -1 -10 4 -10 6 0 11 5 11 10 0 6 -2 10 -4 10 -3 0
-8 -4 -11 -10z"/>
<path d="M7000 5065 c0 -82 2 -146 5 -143 7 7 7 279 0 286 -3 3 -5 -61 -5
-143z"/>
<path d="M4680 5083 c-47 -48 -68 -72 -48 -53 l38 34 32 -30 33 -29 -29 33
-30 32 49 50 c27 28 47 50 44 50 -2 0 -43 -39 -89 -87z"/>
<path d="M4918 5123 c7 -3 16 -2 19 1 4 3 -2 6 -13 5 -11 0 -14 -3 -6 -6z"/>
<path d="M5148 5123 c7 -3 16 -2 19 1 4 3 -2 6 -13 5 -11 0 -14 -3 -6 -6z"/>
<path d="M5408 5123 c7 -3 16 -2 19 1 4 3 -2 6 -13 5 -11 0 -14 -3 -6 -6z"/>
<path d="M5684 5025 c0 -60 1 -84 3 -52 2 32 2 81 0 110 -2 29 -3 3 -3 -58z"/>
<path d="M5784 5025 c0 -60 1 -84 3 -52 2 32 2 81 0 110 -2 29 -3 3 -3 -58z"/>
<path d="M5858 5123 c6 -2 18 -2 25 0 6 3 1 5 -13 5 -14 0 -19 -2 -12 -5z"/>
<path d="M6138 5123 c18 -2 45 -2 60 0 15 2 0 4 -33 4 -33 0 -45 -2 -27 -4z"/>
<path d="M6348 5123 c6 -2 18 -2 25 0 6 3 1 5 -13 5 -14 0 -19 -2 -12 -5z"/>
<path d="M6688 5051 c-2 -43 0 -92 3 -107 4 -16 7 19 8 79 0 59 -1 107 -3 107
-3 0 -6 -36 -8 -79z"/>
<path d="M6865 5120 c17 -4 39 -11 50 -14 13 -5 12 -2 -5 8 -14 8 -36 15 -50
15 -23 -1 -22 -2 5 -9z"/>
<path d="M7088 5123 c6 -2 18 -2 25 0 6 3 1 5 -13 5 -14 0 -19 -2 -12 -5z"/>
<path d="M5809 5103 c-13 -16 -12 -17 4 -4 9 7 17 15 17 17 0 8 -8 3 -21 -13z"/>
<path d="M5910 5116 c0 -2 8 -10 18 -17 15 -13 16 -12 3 4 -13 16 -21 21 -21
13z"/>
<path d="M6294 5098 l-19 -23 25 20 c14 11 27 21 29 22 2 2 0 3 -6 3 -5 0 -18
-10 -29 -22z"/>
<path d="M6418 5092 c15 -15 29 -26 31 -25 6 4 -41 53 -50 53 -4 0 4 -13 19
-28z"/>
<path d="M7141 5105 c9 -11 19 -27 22 -35 5 -13 6 -13 6 1 1 9 -9 24 -21 35
-23 19 -23 19 -7 -1z"/>
<path d="M6784 5085 c-9 -14 -15 -27 -13 -30 3 -2 12 10 21 26 21 36 15 39 -8
4z"/>
<path d="M4996 5077 c3 -10 9 -15 12 -12 3 3 0 11 -7 18 -10 9 -11 8 -5 -6z"/>
<path d="M5226 5077 c3 -10 9 -15 12 -12 3 3 0 11 -7 18 -10 9 -11 8 -5 -6z"/>
<path d="M5320 5060 c0 -11 2 -20 4 -20 2 0 6 9 9 20 3 11 1 20 -4 20 -5 0 -9
-9 -9 -20z"/>
<path d="M5943 5000 c0 -47 2 -66 4 -42 2 23 2 61 0 85 -2 23 -4 4 -4 -43z"/>
<path d="M5503 5025 c0 -22 2 -30 4 -17 2 12 2 30 0 40 -3 9 -5 -1 -4 -23z"/>
<path d="M4831 5020 c1 -16 3 -19 6 -8 4 14 19 18 96 20 l92 3 -98 5 -97 5 1
-25z"/>
<path d="M5061 5020 c1 -16 3 -19 6 -8 4 14 19 18 96 20 l92 3 -98 5 -97 5 1
-25z"/>
<path d="M6452 5025 c0 -16 2 -22 5 -12 2 9 2 23 0 30 -3 6 -5 -1 -5 -18z"/>
<path d="M6261 5024 c0 -11 3 -14 6 -6 3 7 2 16 -1 19 -3 4 -6 -2 -5 -13z"/>
<path d="M5320 4990 c0 -11 4 -20 9 -20 5 0 7 9 4 20 -3 11 -7 20 -9 20 -2 0
-4 -9 -4 -20z"/>
<path d="M4730 4997 c0 -2 15 -16 33 -33 l32 -29 -29 33 c-28 30 -36 37 -36
29z"/>
<path d="M6770 4993 c0 -6 9 -21 21 -34 l20 -24 -17 30 c-24 39 -24 40 -24 28z"/>
<path d="M4840 4981 c0 -9 49 -56 53 -50 1 2 -10 16 -25 31 -15 15 -28 23 -28
19z"/>
<path d="M5070 4981 c0 -9 49 -56 53 -50 1 2 -10 16 -25 31 -15 15 -28 23 -28
19z"/>
<path d="M6418 4958 c-15 -15 -23 -28 -19 -28 9 0 56 49 50 53 -2 1 -16 -10
-31 -25z"/>
<path d="M6531 4979 c-1 -9 9 -24 22 -35 22 -19 22 -19 6 1 -9 11 -19 27 -22
35 -5 13 -6 13 -6 -1z"/>
<path d="M6297 4949 c12 -12 24 -21 27 -18 2 2 -8 13 -22 23 l-27 19 22 -24z"/>
<path d="M4976 4945 c-11 -8 -15 -15 -9 -15 6 0 16 7 23 15 16 19 11 19 -14 0z"/>
<path d="M5206 4945 c-11 -8 -15 -15 -9 -15 6 0 16 7 23 15 16 19 11 19 -14 0z"/>
<path d="M5464 4944 c-18 -14 -18 -15 4 -4 12 6 22 13 22 15 0 8 -5 6 -26 -11z"/>
<path d="M6150 4951 c0 -6 4 -13 10 -16 6 -3 7 1 4 9 -7 18 -14 21 -14 7z"/>
<path d="M4918 4923 c6 -2 18 -2 25 0 6 3 1 5 -13 5 -14 0 -19 -2 -12 -5z"/>
<path d="M5148 4923 c6 -2 18 -2 25 0 6 3 1 5 -13 5 -14 0 -19 -2 -12 -5z"/>
<path d="M5408 4923 c7 -3 16 -2 19 1 4 3 -2 6 -13 5 -11 0 -14 -3 -6 -6z"/>
<path d="M6188 4923 c7 -3 16 -2 19 1 4 3 -2 6 -13 5 -11 0 -14 -3 -6 -6z"/>
<path d="M6348 4923 c6 -2 18 -2 25 0 6 3 1 5 -13 5 -14 0 -19 -2 -12 -5z"/>
<path d="M6598 4923 c6 -2 18 -2 25 0 6 3 1 5 -13 5 -14 0 -19 -2 -12 -5z"/>
<path d="M6853 4923 c9 -2 23 -2 30 0 6 3 -1 5 -18 5 -16 0 -22 -2 -12 -5z"/>
<path d="M2419 3953 c-13 -17 -13 -17 6 -3 11 8 22 16 24 17 2 2 0 3 -6 3 -6
0 -17 -8 -24 -17z"/>
<path d="M2468 3933 c5 -21 7 -23 10 -9 2 10 0 22 -6 28 -6 6 -7 0 -4 -19z"/>
<path d="M6162 3888 l3 -63 78 -3 77 -3 0 66 0 65 -80 0 -81 0 3 -62z m148 -3
l0 -55 -70 0 -70 0 0 55 0 55 70 0 70 0 0 -55z"/>
<path d="M6213 3895 l27 -30 28 30 27 29 -27 -24 -28 -23 -27 23 -28 24 28
-29z"/>
<path d="M6573 3943 c9 -2 25 -2 35 0 9 3 1 5 -18 5 -19 0 -27 -2 -17 -5z"/>
<path d="M6573 3893 c9 -2 23 -2 30 0 6 3 -1 5 -18 5 -16 0 -22 -2 -12 -5z"/>
<path d="M2392 3858 c-7 -7 -12 -19 -11 -27 0 -11 3 -10 8 4 6 14 21 22 52 26
l44 6 -40 1 c-23 1 -46 -3 -53 -10z"/>
<path d="M6573 3843 c9 -2 25 -2 35 0 9 3 1 5 -18 5 -19 0 -27 -2 -17 -5z"/>
<path d="M2418 3813 c12 -2 32 -2 45 0 12 2 2 4 -23 4 -25 0 -35 -2 -22 -4z"/>
<path d="M2448 3083 c12 -2 30 -2 40 0 9 3 -1 5 -23 4 -22 0 -30 -2 -17 -4z"/>
<path d="M3258 3053 c7 -3 16 -2 19 1 4 3 -2 6 -13 5 -11 0 -14 -3 -6 -6z"/>
<path d="M3778 3053 c7 -3 16 -2 19 1 4 3 -2 6 -13 5 -11 0 -14 -3 -6 -6z"/>
<path d="M4248 3053 c7 -3 16 -2 19 1 4 3 -2 6 -13 5 -11 0 -14 -3 -6 -6z"/>
<path d="M9484 2108 l-19 -23 23 19 c21 18 27 26 19 26 -2 0 -12 -10 -23 -22z"/>
<path d="M4780 1750 c-19 -19 -20 -33 -20 -235 0 -202 1 -216 20 -235 20 -20
33 -20 885 -20 852 0 865 0 885 20 19 19 20 33 20 235 0 202 -1 216 -20 235
-20 20 -33 20 -885 20 -852 0 -865 0 -885 -20z m387 -192 c-2 -7 -14 -12 -26
-11 -28 4 -27 -15 2 -19 16 -2 22 -10 22 -28 0 -22 -4 -25 -37 -25 -21 0 -37
5 -35 10 1 6 13 9 25 7 15 -2 21 1 17 7 -3 6 -12 11 -19 11 -8 0 -19 7 -26 15
-10 12 -10 18 0 30 15 19 84 21 77 3z m93 2 c0 -5 -11 -10 -25 -10 -14 0 -25
-4 -25 -10 0 -5 11 -10 25 -10 14 0 25 -4 25 -10 0 -5 -11 -10 -25 -10 -14 0
-25 -4 -25 -10 0 -5 11 -10 25 -10 14 0 25 -4 25 -10 0 -5 -18 -10 -40 -10
l-40 0 0 50 0 50 40 0 c22 0 40 -4 40 -10z m63 -12 l16 -23 0 23 c1 13 7 22
16 22 11 0 15 -12 15 -50 0 -56 -17 -67 -44 -28 l-16 22 0 -22 c0 -15 -6 -22
-20 -22 -17 0 -20 7 -20 50 0 42 3 50 19 50 10 0 26 -10 34 -22z m155 10 c7
-7 12 -24 12 -38 0 -36 -17 -50 -62 -50 l-38 0 0 50 0 50 38 0 c21 0 43 -5 50
-12z m109 -14 l16 -26 14 26 c23 44 43 33 43 -24 0 -38 -4 -50 -15 -50 -8 0
-15 8 -16 18 0 10 -3 12 -6 5 -7 -19 -30 -16 -42 5 -9 15 -10 15 -11 -5 0 -14
-6 -23 -15 -23 -11 0 -15 12 -15 50 0 58 18 67 47 24z m173 16 c0 -5 -11 -10
-25 -10 -14 0 -25 -4 -25 -10 0 -5 9 -10 20 -10 11 0 20 -4 20 -10 0 -5 -9
-10 -20 -10 -11 0 -20 -4 -20 -10 0 -5 25 -9 55 -8 29 1 52 5 49 10 -3 4 -11
8 -18 8 -8 0 -19 7 -26 15 -10 12 -10 18 0 30 15 19 84 21 77 3 -2 -7 -14 -12
-26 -11 -11 2 -21 -2 -21 -7 0 -6 9 -10 21 -10 11 0 23 -8 25 -17 3 -12 16
-19 35 -20 17 -1 27 2 24 7 -4 6 -12 10 -19 10 -8 0 -19 7 -26 15 -10 12 -10
18 0 30 15 19 84 21 77 3 -2 -7 -14 -12 -26 -11 -11 2 -21 -2 -21 -7 0 -6 9
-10 20 -10 12 0 24 -9 28 -21 7 -19 10 -16 24 20 20 51 42 52 67 4 19 -36 20
-36 21 -12 0 35 21 51 61 47 43 -4 51 -28 10 -28 -37 0 -49 -17 -27 -38 15
-16 17 -15 22 6 9 33 36 29 32 -5 -2 -24 -8 -29 -36 -31 -18 -2 -40 2 -48 9
-10 8 -14 8 -14 0 0 -6 -7 -11 -15 -11 -8 0 -15 5 -15 10 0 12 -37 13 -44 1
-3 -4 -71 -9 -151 -9 l-145 -1 0 50 0 49 40 0 c22 0 40 -4 40 -10z m490 0 c0
-5 -13 -10 -30 -10 -16 0 -30 -4 -30 -10 0 -5 11 -10 25 -10 14 0 25 -4 25
-10 0 -5 -11 -10 -25 -10 -14 0 -25 -4 -25 -10 0 -5 14 -10 30 -10 17 0 30 -4
30 -10 0 -5 -20 -10 -45 -10 l-45 0 0 50 0 50 45 0 c25 0 45 -4 45 -10z"/>
<path d="M5420 1520 c0 -32 1 -33 24 -24 29 11 14 54 -20 54 -2 0 -4 -13 -4
-30z"/>
<path d="M10090 153 c0 -8 10 -23 22 -32 20 -17 22 -17 40 1 30 30 23 45 -22
45 -28 0 -40 -4 -40 -14z"/>
</g>
</svg>
